<svg width="282" height="304" viewBox="0 0 282 304" fill="none" xmlns="http://www.w3.org/2000/svg">
<g opacity="0.25">
<g clip-path="url(#clip0_179_3)">
<path opacity="0.3" d="M136.009 195.811C160.001 195.811 179.449 176.196 179.449 152C179.449 127.805 160.001 108.19 136.009 108.19C112.018 108.19 92.569 127.805 92.569 152C92.569 176.196 112.018 195.811 136.009 195.811Z" stroke="url(#paint0_linear_179_3)" stroke-width="0.56113" stroke-miterlimit="10"/>
</g>
</g>
<g opacity="0.2">
<g clip-path="url(#clip1_179_3)">
<path opacity="0.3" d="M136.015 221.698C174.183 221.698 205.124 190.493 205.124 152C205.124 113.507 174.183 82.3018 136.015 82.3018C97.8464 82.3018 66.9052 113.507 66.9052 152C66.9052 190.493 97.8464 221.698 136.015 221.698Z" stroke="url(#paint1_linear_179_3)" stroke-width="0.892707" stroke-miterlimit="10"/>
</g>
</g>
<g opacity="0.15">
<g clip-path="url(#clip2_179_3)">
<path opacity="0.3" d="M136.021 251.569C190.547 251.569 234.748 206.99 234.748 152C234.748 97.0097 190.547 52.4312 136.021 52.4312C81.4949 52.4312 37.293 97.0097 37.293 152C37.293 206.99 81.4949 251.569 136.021 251.569Z" stroke="url(#paint2_linear_179_3)" stroke-width="1.2753" stroke-miterlimit="10"/>
</g>
</g>
<g opacity="0.1">
<g clip-path="url(#clip3_179_3)">
<path opacity="0.3" d="M136.026 276.461C204.183 276.461 259.435 220.738 259.435 152C259.435 83.2623 204.183 27.5391 136.026 27.5391C67.8686 27.5391 12.6163 83.2623 12.6163 152C12.6163 220.738 67.8686 276.461 136.026 276.461Z" stroke="url(#paint3_linear_179_3)" stroke-width="1.59412" stroke-miterlimit="10"/>
</g>
</g>
<g opacity="0.1">
<path opacity="0.3" d="M136.031 301.353C217.82 301.353 284.122 234.485 284.122 152C284.122 69.5143 217.82 2.64648 136.031 2.64648C54.2423 2.64648 -12.0604 69.5143 -12.0604 152C-12.0604 234.485 54.2423 301.353 136.031 301.353Z" stroke="url(#paint4_linear_179_3)" stroke-width="1.91294" stroke-miterlimit="10"/>
</g>
<g filter="url(#filter0_di_179_3)">
<path d="M52 154.8C52 141.545 62.7452 130.8 76 130.8H204.91C218.165 130.8 228.91 141.545 228.91 154.8V159C228.91 172.255 218.165 183 204.91 183H62C56.4771 183 52 178.523 52 173V154.8Z" fill="url(#paint5_linear_179_3)"/>
<path d="M77.2195 162.2V149.836H79.4592V155.07H85.1882V149.836H87.4339V162.2H85.1882V156.948H79.4592V162.2H77.2195ZM93.618 162.381C92.7125 162.381 91.9277 162.182 91.2636 161.783C90.5995 161.385 90.0844 160.827 89.7181 160.111C89.3559 159.395 89.1748 158.557 89.1748 157.6C89.1748 156.642 89.3559 155.803 89.7181 155.082C90.0844 154.362 90.5995 153.802 91.2636 153.404C91.9277 153.005 92.7125 152.806 93.618 152.806C94.5235 152.806 95.3083 153.005 95.9724 153.404C96.6365 153.802 97.1496 154.362 97.5118 155.082C97.8781 155.803 98.0612 156.642 98.0612 157.6C98.0612 158.557 97.8781 159.395 97.5118 160.111C97.1496 160.827 96.6365 161.385 95.9724 161.783C95.3083 162.182 94.5235 162.381 93.618 162.381ZM93.6301 160.63C94.1211 160.63 94.5316 160.495 94.8616 160.226C95.1916 159.952 95.4371 159.586 95.5981 159.127C95.7631 158.668 95.8456 158.157 95.8456 157.594C95.8456 157.026 95.7631 156.513 95.5981 156.054C95.4371 155.591 95.1916 155.223 94.8616 154.949C94.5316 154.676 94.1211 154.539 93.6301 154.539C93.127 154.539 92.7084 154.676 92.3744 154.949C92.0444 155.223 91.7969 155.591 91.6319 156.054C91.4709 156.513 91.3904 157.026 91.3904 157.594C91.3904 158.157 91.4709 158.668 91.6319 159.127C91.7969 159.586 92.0444 159.952 92.3744 160.226C92.7084 160.495 93.127 160.63 93.6301 160.63ZM101.364 162.2L98.7441 152.927H100.972L102.602 159.447H102.686L104.352 152.927H106.556L108.222 159.411H108.313L109.918 152.927H112.152L109.526 162.2H107.25L105.511 155.933H105.385L103.646 162.2H101.364ZM121.539 162.381C120.614 162.381 119.819 162.178 119.155 161.771C118.495 161.365 117.986 160.803 117.628 160.087C117.273 159.366 117.096 158.537 117.096 157.6C117.096 156.658 117.277 155.827 117.64 155.106C118.002 154.382 118.513 153.818 119.173 153.416C119.837 153.009 120.622 152.806 121.527 152.806C122.28 152.806 122.946 152.945 123.526 153.223C124.109 153.496 124.574 153.885 124.92 154.388C125.266 154.887 125.463 155.471 125.512 156.139H123.423C123.338 155.692 123.137 155.32 122.819 155.022C122.505 154.72 122.085 154.569 121.558 154.569C121.111 154.569 120.718 154.69 120.38 154.931C120.042 155.169 119.779 155.511 119.59 155.958C119.404 156.404 119.312 156.94 119.312 157.563C119.312 158.195 119.404 158.739 119.59 159.193C119.775 159.644 120.034 159.992 120.368 160.238C120.706 160.479 121.103 160.6 121.558 160.6C121.88 160.6 122.167 160.54 122.421 160.419C122.678 160.294 122.894 160.115 123.067 159.882C123.24 159.648 123.359 159.364 123.423 159.03H125.512C125.459 159.686 125.266 160.268 124.932 160.775C124.598 161.278 124.143 161.672 123.568 161.958C122.992 162.24 122.316 162.381 121.539 162.381ZM129.775 162.387C129.187 162.387 128.658 162.282 128.187 162.073C127.72 161.86 127.35 161.546 127.076 161.131C126.806 160.717 126.672 160.206 126.672 159.598C126.672 159.075 126.768 158.642 126.961 158.3C127.155 157.958 127.418 157.684 127.752 157.479C128.086 157.274 128.463 157.119 128.881 157.014C129.304 156.905 129.74 156.827 130.191 156.779C130.734 156.722 131.175 156.672 131.513 156.628C131.851 156.579 132.097 156.507 132.25 156.41C132.407 156.31 132.485 156.155 132.485 155.945V155.909C132.485 155.454 132.35 155.102 132.081 154.853C131.811 154.603 131.423 154.478 130.916 154.478C130.38 154.478 129.956 154.595 129.642 154.829C129.332 155.062 129.123 155.338 129.014 155.656L126.973 155.366C127.134 154.802 127.4 154.332 127.77 153.953C128.141 153.571 128.593 153.285 129.129 153.096C129.664 152.903 130.256 152.806 130.903 152.806C131.35 152.806 131.795 152.859 132.238 152.963C132.68 153.068 133.085 153.241 133.451 153.482C133.817 153.72 134.111 154.044 134.332 154.454C134.558 154.865 134.671 155.378 134.671 155.994V162.2H132.57V160.926H132.497C132.364 161.183 132.177 161.425 131.936 161.65C131.698 161.872 131.399 162.051 131.036 162.188C130.678 162.32 130.258 162.387 129.775 162.387ZM130.342 160.781C130.781 160.781 131.161 160.694 131.483 160.521C131.805 160.344 132.053 160.111 132.226 159.821C132.403 159.531 132.491 159.215 132.491 158.873V157.781C132.423 157.837 132.306 157.889 132.141 157.938C131.98 157.986 131.799 158.028 131.598 158.064C131.397 158.101 131.197 158.133 131 158.161C130.803 158.189 130.632 158.213 130.487 158.233C130.161 158.278 129.869 158.35 129.612 158.451C129.354 158.551 129.151 158.692 129.002 158.873C128.853 159.05 128.778 159.28 128.778 159.562C128.778 159.964 128.925 160.268 129.219 160.473C129.513 160.678 129.887 160.781 130.342 160.781ZM138.853 156.766V162.2H136.668V152.927H138.757V154.503H138.865C139.079 153.983 139.419 153.571 139.886 153.265C140.357 152.959 140.938 152.806 141.63 152.806C142.27 152.806 142.828 152.943 143.303 153.217C143.782 153.49 144.152 153.887 144.413 154.406C144.679 154.925 144.81 155.555 144.806 156.296V162.2H142.62V156.634C142.62 156.014 142.459 155.529 142.137 155.179C141.82 154.829 141.379 154.654 140.815 154.654C140.433 154.654 140.093 154.738 139.795 154.907C139.501 155.072 139.27 155.312 139.101 155.625C138.936 155.939 138.853 156.32 138.853 156.766ZM153.18 149.836V162.2H150.941V149.836H153.18ZM161.511 156.766V162.2H159.326V149.836H161.463V154.503H161.572C161.789 153.979 162.125 153.567 162.58 153.265C163.039 152.959 163.622 152.806 164.331 152.806C164.975 152.806 165.536 152.941 166.015 153.211C166.494 153.48 166.864 153.875 167.126 154.394C167.391 154.913 167.524 155.547 167.524 156.296V162.2H165.339V156.634C165.339 156.01 165.178 155.525 164.856 155.179C164.538 154.829 164.091 154.654 163.516 154.654C163.129 154.654 162.783 154.738 162.477 154.907C162.175 155.072 161.938 155.312 161.765 155.625C161.596 155.939 161.511 156.32 161.511 156.766ZM173.657 162.381C172.727 162.381 171.924 162.188 171.248 161.801C170.576 161.411 170.059 160.86 169.697 160.147C169.334 159.431 169.153 158.588 169.153 157.618C169.153 156.664 169.334 155.827 169.697 155.106C170.063 154.382 170.574 153.818 171.23 153.416C171.886 153.009 172.657 152.806 173.542 152.806C174.114 152.806 174.653 152.899 175.16 153.084C175.671 153.265 176.122 153.547 176.512 153.929C176.907 154.311 177.217 154.798 177.442 155.39C177.667 155.978 177.78 156.678 177.78 157.491V158.161H170.18V156.688H175.685C175.681 156.269 175.591 155.897 175.414 155.571C175.237 155.241 174.989 154.982 174.671 154.792C174.357 154.603 173.991 154.509 173.572 154.509C173.126 154.509 172.733 154.617 172.395 154.835C172.057 155.048 171.793 155.33 171.604 155.68C171.419 156.026 171.325 156.406 171.321 156.821V158.107C171.321 158.646 171.419 159.109 171.616 159.495C171.814 159.878 172.089 160.171 172.443 160.377C172.798 160.578 173.212 160.678 173.687 160.678C174.005 160.678 174.293 160.634 174.55 160.546C174.808 160.453 175.031 160.318 175.22 160.141C175.41 159.964 175.552 159.745 175.649 159.483L177.69 159.712C177.561 160.252 177.315 160.723 176.953 161.125C176.595 161.524 176.136 161.833 175.577 162.055C175.017 162.272 174.377 162.381 173.657 162.381ZM181.614 149.836V162.2H179.429V149.836H181.614ZM183.662 165.677V152.927H185.811V154.46H185.937C186.05 154.235 186.209 153.996 186.414 153.742C186.62 153.484 186.897 153.265 187.247 153.084C187.598 152.899 188.044 152.806 188.588 152.806C189.304 152.806 189.95 152.989 190.526 153.356C191.105 153.718 191.564 154.255 191.902 154.967C192.244 155.676 192.415 156.545 192.415 157.575C192.415 158.594 192.248 159.459 191.914 160.171C191.58 160.884 191.125 161.427 190.55 161.801C189.974 162.176 189.322 162.363 188.594 162.363C188.062 162.363 187.622 162.274 187.272 162.097C186.921 161.92 186.64 161.707 186.426 161.457C186.217 161.204 186.054 160.964 185.937 160.739H185.847V165.677H183.662ZM185.805 157.563C185.805 158.163 185.889 158.688 186.058 159.139C186.231 159.59 186.479 159.942 186.801 160.195C187.127 160.445 187.521 160.57 187.984 160.57C188.467 160.57 188.871 160.441 189.197 160.183C189.523 159.922 189.769 159.566 189.934 159.115C190.103 158.66 190.187 158.143 190.187 157.563C190.187 156.988 190.105 156.477 189.94 156.03C189.775 155.583 189.529 155.233 189.203 154.98C188.877 154.726 188.471 154.599 187.984 154.599C187.517 154.599 187.121 154.722 186.795 154.967C186.469 155.213 186.221 155.557 186.052 156C185.887 156.442 185.805 156.964 185.805 157.563ZM196.175 158.565V158.409C196.179 157.68 196.248 157.101 196.381 156.67C196.517 156.239 196.711 155.893 196.96 155.632C197.21 155.366 197.514 155.122 197.872 154.901C198.117 154.748 198.337 154.581 198.53 154.4C198.727 154.215 198.882 154.01 198.995 153.784C199.107 153.555 199.164 153.299 199.164 153.018C199.164 152.7 199.089 152.424 198.94 152.19C198.791 151.957 198.59 151.776 198.337 151.647C198.087 151.518 197.807 151.454 197.497 151.454C197.212 151.454 196.94 151.516 196.682 151.641C196.429 151.762 196.218 151.947 196.049 152.197C195.884 152.442 195.791 152.754 195.771 153.132H193.622C193.642 152.368 193.827 151.728 194.177 151.212C194.531 150.697 194.998 150.311 195.578 150.053C196.161 149.796 196.805 149.667 197.509 149.667C198.278 149.667 198.954 149.802 199.538 150.072C200.125 150.341 200.582 150.726 200.908 151.225C201.238 151.72 201.403 152.307 201.403 152.987C201.403 153.446 201.329 153.857 201.18 154.219C201.035 154.581 200.828 154.903 200.558 155.185C200.288 155.467 199.969 155.718 199.598 155.939C199.272 156.141 199.005 156.35 198.795 156.567C198.59 156.785 198.437 157.04 198.337 157.334C198.24 157.624 198.19 157.982 198.186 158.409V158.565H196.175ZM197.226 162.333C196.864 162.333 196.552 162.204 196.29 161.946C196.028 161.689 195.898 161.375 195.898 161.004C195.898 160.642 196.028 160.332 196.29 160.075C196.552 159.817 196.864 159.688 197.226 159.688C197.584 159.688 197.894 159.817 198.155 160.075C198.421 160.332 198.554 160.642 198.554 161.004C198.554 161.25 198.491 161.473 198.367 161.674C198.246 161.876 198.085 162.037 197.884 162.157C197.687 162.274 197.467 162.333 197.226 162.333Z" fill="#E0E0E0"/>
</g>
<defs>
<filter id="filter0_di_179_3" x="44" y="127.8" width="192.91" height="68.2002" filterUnits="userSpaceOnUse" color-interpolation-filters="sRGB">
<feFlood flood-opacity="0" result="BackgroundImageFix"/>
<feColorMatrix in="SourceAlpha" type="matrix" values="0 0 0 0 0 0 0 0 0 0 0 0 0 0 0 0 0 0 127 0" result="hardAlpha"/>
<feMorphology radius="3" operator="dilate" in="SourceAlpha" result="effect1_dropShadow_179_3"/>
<feOffset dy="5"/>
<feGaussianBlur stdDeviation="2.5"/>
<feComposite in2="hardAlpha" operator="out"/>
<feColorMatrix type="matrix" values="0 0 0 0 0 0 0 0 0 0 0 0 0 0 0 0 0 0 0.2 0"/>
<feBlend mode="normal" in2="BackgroundImageFix" result="effect1_dropShadow_179_3"/>
<feBlend mode="normal" in="SourceGraphic" in2="effect1_dropShadow_179_3" result="shape"/>
<feColorMatrix in="SourceAlpha" type="matrix" values="0 0 0 0 0 0 0 0 0 0 0 0 0 0 0 0 0 0 127 0" result="hardAlpha"/>
<feMorphology radius="1" operator="erode" in="SourceAlpha" result="effect2_innerShadow_179_3"/>
<feOffset dy="-2"/>
<feGaussianBlur stdDeviation="5"/>
<feComposite in2="hardAlpha" operator="arithmetic" k2="-1" k3="1"/>
<feColorMatrix type="matrix" values="0 0 0 0 0.439216 0 0 0 0 0.439216 0 0 0 0 0.439216 0 0 0 0.3 0"/>
<feBlend mode="normal" in2="shape" result="effect2_innerShadow_179_3"/>
</filter>
<linearGradient id="paint0_linear_179_3" x1="135.995" y1="108.014" x2="135.995" y2="195.97" gradientUnits="userSpaceOnUse">
<stop stop-color="white" stop-opacity="0"/>
<stop offset="0.492" stop-color="white"/>
<stop offset="1" stop-color="white" stop-opacity="0"/>
</linearGradient>
<linearGradient id="paint1_linear_179_3" x1="135.992" y1="82.0224" x2="135.992" y2="221.951" gradientUnits="userSpaceOnUse">
<stop stop-color="white" stop-opacity="0"/>
<stop offset="0.492" stop-color="white"/>
<stop offset="1" stop-color="white" stop-opacity="0"/>
</linearGradient>
<linearGradient id="paint2_linear_179_3" x1="135.988" y1="52.0321" x2="135.988" y2="251.93" gradientUnits="userSpaceOnUse">
<stop stop-color="white" stop-opacity="0"/>
<stop offset="0.492" stop-color="white"/>
<stop offset="1" stop-color="white" stop-opacity="0"/>
</linearGradient>
<linearGradient id="paint3_linear_179_3" x1="135.985" y1="27.0402" x2="135.985" y2="276.913" gradientUnits="userSpaceOnUse">
<stop stop-color="white" stop-opacity="0"/>
<stop offset="0.492" stop-color="white"/>
<stop offset="1" stop-color="white" stop-opacity="0"/>
</linearGradient>
<linearGradient id="paint4_linear_179_3" x1="135.982" y1="2.04786" x2="135.982" y2="301.895" gradientUnits="userSpaceOnUse">
<stop stop-color="white" stop-opacity="0"/>
<stop offset="0.492" stop-color="white"/>
<stop offset="1" stop-color="white" stop-opacity="0"/>
</linearGradient>
<linearGradient id="paint5_linear_179_3" x1="140.455" y1="130.8" x2="140.455" y2="183" gradientUnits="userSpaceOnUse">
<stop offset="0.18" stop-color="#1F1E21"/>
<stop offset="1" stop-color="#131216"/>
</linearGradient>
<clipPath id="clip0_179_3">
<rect width="88" height="88.6519" fill="white" transform="translate(92 107.674)"/>
</clipPath>
<clipPath id="clip1_179_3">
<rect width="140" height="141.037" fill="white" transform="translate(66 81.4814)"/>
</clipPath>
<clipPath id="clip2_179_3">
<rect width="200" height="201.481" fill="white" transform="translate(36 51.2593)"/>
</clipPath>
<clipPath id="clip3_179_3">
<rect width="250" height="251.852" fill="white" transform="translate(11 26.0742)"/>
</clipPath>
</defs>
</svg>
