<svg width="220" height="220" viewBox="0 0 220 220" fill="none" xmlns="http://www.w3.org/2000/svg">
<g clip-path="url(#clip0_1_1740)">
<path d="M61.3153 11.9165C69.802 12.9696 78.2224 15.704 86.0946 20.249C117.583 38.429 128.372 78.693 110.192 110.182C92.0121 78.693 51.7477 67.9043 20.2591 86.0847C12.3984 90.623 5.82769 96.5372 0.675606 103.348C3.14103 63.2256 27.1686 28.9337 61.3153 11.9165Z" fill="#FFD600"/>
<path d="M0.670363 103.351C5.82248 96.5406 12.3932 90.6258 20.2539 86.0876C51.7424 67.9077 92.0066 78.6965 110.187 110.185C73.8267 110.185 44.3513 139.661 44.3513 176.02C44.3513 185.102 46.1903 193.755 49.5162 201.625C19.9484 181.968 0.461029 148.353 0.461029 110.185C0.461029 107.89 0.531488 105.611 0.670363 103.351Z" fill="#1BC47D"/>
<path d="M49.5197 201.622C46.1937 193.751 44.3548 185.099 44.3548 176.017C44.3548 139.657 73.83 110.182 110.19 110.182C92.0105 141.67 102.799 181.935 134.288 200.114C142.16 204.659 150.58 207.394 159.067 208.447C144.349 215.782 127.751 219.907 110.19 219.907C87.7581 219.907 66.8976 213.176 49.5197 201.622Z" fill="#18A0FB"/>
<path d="M159.059 208.447C150.572 207.394 142.152 204.659 134.28 200.114C102.791 181.935 92.0022 141.67 110.182 110.182C128.362 141.67 168.626 152.459 200.115 134.279C207.976 129.741 214.547 123.826 219.698 117.015C217.233 157.138 193.206 191.43 159.059 208.447Z" fill="#7B61FF"/>
<path d="M219.703 117.015C214.55 123.825 207.98 129.74 200.119 134.278C168.631 152.458 128.366 141.67 110.187 110.181C146.546 110.181 176.022 80.7055 176.022 44.3456C176.022 35.2636 174.183 26.6111 170.857 18.7402C200.425 38.3976 219.912 72.0135 219.912 110.181C219.912 112.476 219.841 114.754 219.703 117.015Z" fill="#F24822"/>
<path d="M170.862 18.741C174.188 26.6119 176.027 35.2644 176.027 44.3464C176.027 80.7062 146.551 110.182 110.191 110.182C128.371 78.6932 117.583 38.4289 86.0941 20.2489C78.2223 15.704 69.8014 12.9695 61.3147 11.9164C76.0328 4.58161 92.6304 0.456055 110.191 0.456055C132.624 0.456055 153.484 7.18765 170.862 18.741Z" fill="#F97F0F"/>
</g>
<defs>
<clipPath id="clip0_1_1740">
<rect width="220" height="220" fill="white"/>
</clipPath>
</defs>
</svg>
