<svg width="330" height="328" viewBox="0 0 330 328" fill="none" xmlns="http://www.w3.org/2000/svg">
<g clip-path="url(#clip0_1_1739)">
<path d="M116.315 51.9165C124.802 52.9696 133.222 55.704 141.095 60.249C172.583 78.429 183.372 118.693 165.192 150.182C147.012 118.693 106.748 107.904 75.2591 126.085C67.3984 130.623 60.8277 136.537 55.6756 143.348C58.141 103.226 82.1686 68.9337 116.315 51.9165Z" fill="#FFD600"/>
<path d="M55.6704 143.351C60.8225 136.541 67.3932 130.626 75.2539 126.088C106.742 107.908 147.007 118.696 165.187 150.185C128.827 150.185 99.3513 179.661 99.3513 216.02C99.3513 225.102 101.19 233.755 104.516 241.625C74.9484 221.968 55.461 188.353 55.461 150.185C55.461 147.89 55.5315 145.611 55.6704 143.351Z" fill="#1BC47D"/>
<path d="M104.52 241.622C101.194 233.751 99.3548 225.099 99.3548 216.017C99.3548 179.657 128.83 150.182 165.19 150.182C147.01 181.67 157.799 221.935 189.288 240.114C197.16 244.659 205.58 247.394 214.067 248.447C199.349 255.782 182.751 259.907 165.19 259.907C142.758 259.907 121.898 253.176 104.52 241.622Z" fill="#18A0FB"/>
<path d="M214.059 248.447C205.572 247.394 197.152 244.659 189.28 240.114C157.791 221.935 147.002 181.67 165.182 150.182C183.362 181.67 223.626 192.459 255.115 174.279C262.976 169.741 269.547 163.826 274.698 157.015C272.233 197.138 248.206 231.43 214.059 248.447Z" fill="#7B61FF"/>
<path d="M274.703 157.015C269.55 163.825 262.98 169.74 255.119 174.278C223.631 192.458 183.366 181.67 165.187 150.181C201.546 150.181 231.022 120.705 231.022 84.3456C231.022 75.2636 229.183 66.6111 225.857 58.7402C255.425 78.3976 274.912 112.014 274.912 150.181C274.912 152.476 274.841 154.754 274.703 157.015Z" fill="#F24822"/>
<path d="M225.862 58.741C229.188 66.6119 231.027 75.2644 231.027 84.3464C231.027 120.706 201.551 150.182 165.191 150.182C183.371 118.693 172.583 78.4289 141.094 60.2489C133.222 55.704 124.801 52.9695 116.315 51.9164C131.033 44.5816 147.63 40.4561 165.191 40.4561C187.624 40.4561 208.484 47.1877 225.862 58.741Z" fill="#F97F0F"/>
</g>
<rect x="0.5" y="88" width="329" height="240" fill="url(#paint0_linear_1_1739)"/>
<defs>
<linearGradient id="paint0_linear_1_1739" x1="165" y1="88" x2="165" y2="328" gradientUnits="userSpaceOnUse">
<stop stop-opacity="0"/>
<stop offset="0.51" stop-color="#0E0E11"/>
</linearGradient>
<clipPath id="clip0_1_1739">
<rect width="220" height="220" fill="white" transform="translate(55 40)"/>
</clipPath>
</defs>
</svg>
